# xmcd
#
# Track frame offsets:
#	150
#	26152
#	58078
#	102141
#	141221
#	188847
#	258968
#
# Disc length: 3886 seconds
#
# Revision: 1
# Processed by: cddbd v1.5.2PL0 Copyright (c) Steve Scherf et al.
# Submitted via: audiograbber 1.83.01
#
DISCID=5e0f2c07
DTITLE=Grateful Dead - 92-12-12 Oakland Coliseum Arena, Oakland CA
DYEAR=1900
DGENRE=
TTITLE0=Jack Straw
TTITLE1=Bertha
TTITLE2=Little Red Rooster
TTITLE3=Friend Of The Devil
TTITLE4=Desolation Row
TTITLE5=Bird Song
TTITLE6=Picasso Moon
EXTD=
EXTT0=
EXTT1=
EXTT2=
EXTT3=
EXTT4=
EXTT5=
EXTT6=
PLAYORDER=
